<svg width="40" height="40" viewBox="0 0 40 40" fill="none" xmlns="http://www.w3.org/2000/svg">
<g id="heart">
<path id="Shape" d="M17.9163 32.469L17.9156 32.4684C13.6137 28.6418 10.0839 25.5017 7.62352 22.551C5.16859 19.6069 3.83325 16.9143 3.83325 13.9918C3.83325 9.24158 7.63361 5.5 12.4999 5.5C15.2521 5.5 17.8987 6.75916 19.6223 8.74467L19.9999 9.1796L20.3775 8.74467C22.1012 6.75916 24.7477 5.5 27.4999 5.5C32.3662 5.5 36.1666 9.24158 36.1666 13.9918C36.1666 16.9143 34.8313 19.6069 32.3762 22.5532C29.9232 25.4971 26.4072 28.6312 22.1229 32.4503L22.085 32.4841L22.0839 32.4851L20.0012 34.3308L17.9163 32.469Z" stroke="#2D4053"/>
</g>
</svg>
